<?xml version="1.0" encoding="UTF-8" standalone="no"?>
<!-- Created with Inkscape (http://www.inkscape.org/) -->

<svg
   xmlns:dc="http://purl.org/dc/elements/1.1/"
   xmlns:cc="http://creativecommons.org/ns#"
   xmlns:rdf="http://www.w3.org/1999/02/22-rdf-syntax-ns#"
   xmlns:svg="http://www.w3.org/2000/svg"
   xmlns="http://www.w3.org/2000/svg"
   xmlns:xlink="http://www.w3.org/1999/xlink"
   xmlns:sodipodi="http://sodipodi.sourceforge.net/DTD/sodipodi-0.dtd"
   xmlns:inkscape="http://www.inkscape.org/namespaces/inkscape"
   width="192"
   height="192"
   viewBox="0 0 192 192.00001"
   version="1.1"
   id="svg8"
   sodipodi:docname="salish-keyboard-icon.svg"
   inkscape:version="0.92.4 (5da689c313, 2019-01-14)"
   inkscape:export-filename="C:\dofdev\Salish Keyboard\salish-keyboard-icon.png"
   inkscape:export-xdpi="256"
   inkscape:export-ydpi="256">
  <defs
     id="defs2">
    <linearGradient
       inkscape:collect="always"
       id="linearGradient1965">
      <stop
         style="stop-color:#1c161b;stop-opacity:0.5"
         offset="0"
         id="stop1961" />
      <stop
         style="stop-color:#1c161b;stop-opacity:0;"
         offset="1"
         id="stop1963" />
    </linearGradient>
    <linearGradient
       inkscape:collect="always"
       xlink:href="#linearGradient1965"
       id="linearGradient1971"
       x1="92.405533"
       y1="1010.9304"
       x2="147.82085"
       y2="1062.9532"
       gradientUnits="userSpaceOnUse" />
  </defs>
  <sodipodi:namedview
     id="base"
     pagecolor="#ffffff"
     bordercolor="#000000"
     borderopacity="0.56078431"
     inkscape:pageopacity="0"
     inkscape:pageshadow="2"
     inkscape:zoom="1.979899"
     inkscape:cx="66.492719"
     inkscape:cy="101.6195"
     inkscape:document-units="px"
     inkscape:current-layer="layer1"
     showgrid="false"
     inkscape:snap-global="false"
     showguides="true"
     inkscape:guide-bbox="true"
     inkscape:window-width="1920"
     inkscape:window-height="1027"
     inkscape:window-x="-8"
     inkscape:window-y="22"
     inkscape:window-maximized="1"
     units="px"
     inkscape:showpageshadow="false"
     inkscape:pagecheckerboard="false"
     inkscape:snap-bbox="true"
     inkscape:snap-page="true"
     borderlayer="true">
    <inkscape:grid
       type="xygrid"
       id="grid832" />
  </sodipodi:namedview>
  <metadata
     id="metadata5">
    <rdf:RDF>
      <cc:Work
         rdf:about="">
        <dc:format>image/svg+xml</dc:format>
        <dc:type
           rdf:resource="http://purl.org/dc/dcmitype/StillImage" />
        <dc:title />
      </cc:Work>
    </rdf:RDF>
  </metadata>
  <g
     inkscape:label="Layer 1"
     inkscape:groupmode="layer"
     id="layer1"
     transform="translate(0,-930.51965)">
    <path
       style="fill:#1c161b;fill-opacity:1;stroke:none;stroke-width:3.14762044;stroke-linecap:butt;stroke-linejoin:miter;stroke-miterlimit:4;stroke-dasharray:none;stroke-opacity:1"
       d="m 31.950295,959.96696 c 43.876553,8.69094 87.154865,9.20369 127.509105,-0.32554 7.89365,-1.77643 8.66265,2.45107 9.76665,8.1389 l 22.34605,103.84488 c 0,0 0.10261,8.0315 -0.26872,13.0593 -10.89084,1.4332 -181.055533,1.5621 -190.78290754,0 -0.24551432,-4.7122 0.0141647,-12.1647 0.0141647,-12.1669 L 23.378019,968.11152 c 1.011881,-10.09604 4.723823,-9.39183 8.572937,-8.13889 z"
       id="path4518"
       inkscape:connector-curvature="0"
       sodipodi:nodetypes="cccccccccc"
       inkscape:export-filename="C:\dofdev\Web Development\dofdev\v2\dof-covers\salishkeyboard.png"
       inkscape:export-xdpi="256"
       inkscape:export-ydpi="256" />
    <path
       style="fill:#f2e2c8;fill-opacity:1;stroke-width:1.14920998"
       d="m 97.615778,1000.7522 c -2.570331,-0.022 -5.195887,0.1495 -7.893649,0.5072 -9.29379,1.2326 -14.97792,3.6691 -24.031342,10.3096 -5.486743,4.0244 -11.152758,6.6213 -22.386836,10.2575 -17.945921,5.8086 -20.58188,7.9444 -9.276871,7.5126 2.856277,-0.1087 8.77396,0.1305 13.149924,0.5316 7.344547,0.6734 8.801895,1.2072 18.984084,6.95 12.832991,7.2378 20.042316,9.3802 31.135002,9.2523 10.44938,-0.1195 20.60068,-3.5352 29.13701,-9.7963 8.76773,-6.4311 15.83965,-8.4179 29.95773,-8.4224 17.3159,0 15.20394,-2.2798 -7.30346,-7.8568 -12.54179,-3.1076 -14.65166,-3.932 -19.83861,-7.7645 -10.39837,-7.683 -20.49494,-11.386 -31.632982,-11.4808 z"
       id="path892"
       inkscape:connector-curvature="0"
       sodipodi:nodetypes="ccccccscscssc" />
    <path
       style="fill:#5a2927;stroke-width:1.16148973"
       d="m 97.291872,1007.5482 c -18.181882,0.026 -35.947996,10.1211 -29.106612,21.1816 1.890807,3.0566 3.608117,4.2497 9.820261,6.8159 4.141025,1.7107 10.708268,3.3939 14.592148,3.7405 11.821361,1.0551 28.091391,-5.1275 31.414891,-11.9358 2.75289,-5.6394 -0.94597,-12.0604 -9.29523,-16.1363 -5.25722,-2.5663 -11.36484,-3.6745 -17.425458,-3.6659 z"
       id="path894"
       inkscape:connector-curvature="0"
       sodipodi:nodetypes="ccccssc" />
  </g>
</svg>
